<?xml version="1.0" encoding="utf-8"?>
<!-- Generator: Adobe Illustrator 16.0.0, SVG Export Plug-In . SVG Version: 6.00 Build 0)  -->
<!DOCTYPE svg PUBLIC "-//W3C//DTD SVG 1.1//EN" "http://www.w3.org/Graphics/SVG/1.1/DTD/svg11.dtd">
<svg version="1.1" id="Layer_1" xmlns="http://www.w3.org/2000/svg" xmlns:xlink="http://www.w3.org/1999/xlink" x="0px" y="0px"
	 width="88px" height="23px" viewBox="0 0 88 23" enable-background="new 0 0 88 23" xml:space="preserve">
<g id="Layer_1_1_">
	<path fill="#00060C" d="M16.153,13.583c1.417,0,2.818,0,4.333,0c-0.395,0.384-0.71,0.704-1.041,1.009
		c-0.059,0.055-0.175,0.072-0.264,0.072c-1.356,0.003-2.714,0.003-4.13,0.003c0-0.123,0-0.237,0-0.353
		c0-0.863-0.012-1.729,0.008-2.592c0.006-0.17,0.098-0.355,0.197-0.5c0.507-0.734,1.192-0.98,2.093-0.902
		c1.013,0.084,2.038,0.018,3.086,0.018c0,0.355,0,0.695,0,1.074c-1.418,0-2.841,0-4.283,0
		C16.153,12.145,16.153,12.835,16.153,13.583z"/>
	<path fill="#00060C" d="M40.359,10.366c0,0.355,0,0.687,0,1.045c-1.43,0-2.846,0-4.299,0c0,1.088,0,2.149,0,3.233
		c-0.38,0-0.719,0-1.078,0c0-1.427,0-2.839,0-4.279C36.765,10.366,38.548,10.366,40.359,10.366z"/>
	<path fill="#00060C" d="M1.123,10.339c0.564,0,1.03-0.006,1.496,0.005c0.083,0.001,0.185,0.053,0.245,0.115
		c1.371,1.364,2.738,2.732,4.103,4.102c0.014,0.015,0.017,0.045,0.035,0.106c-0.486,0-0.961,0.004-1.436-0.006
		c-0.073,0-0.161-0.052-0.215-0.104C3.964,13.178,2.579,11.793,1.123,10.339z"/>
	<path fill="#00060C" d="M54.341,14.667c-0.562,0-1.013,0.007-1.468-0.006c-0.098,0-0.21-0.054-0.281-0.122
		c-1.369-1.363-2.738-2.733-4.103-4.103c-0.011-0.012-0.011-0.041-0.021-0.098c0.483,0,0.957-0.003,1.433,0.005
		c0.07,0.001,0.16,0.052,0.215,0.105C51.501,11.829,52.883,13.213,54.341,14.667z"/>
	<path fill="#00060C" d="M26.862,14.667c-0.466,0-0.932,0.004-1.396-0.003c-0.084-0.003-0.19-0.047-0.251-0.105
		c-1.388-1.377-2.772-2.761-4.157-4.146c-0.005-0.005,0-0.022,0-0.073c0.482,0,0.968-0.003,1.454,0.005
		c0.071,0.001,0.154,0.061,0.208,0.115C24.096,11.852,25.466,13.25,26.862,14.667z"/>
	<path fill="#00060C" d="M14.521,14.648c-0.356,0-0.688,0-1.039,0c0-1.428,0-2.838,0-4.281c0.331,0,0.672,0,1.039,0
		C14.521,11.778,14.521,13.199,14.521,14.648z"/>
	<path fill="#00060C" d="M33.397,10.355c0.348,0,0.68,0,1.037,0c0,1.423,0,2.846,0,4.292c-0.339,0-0.679,0-1.037,0
		C33.397,13.223,33.397,11.809,33.397,10.355z"/>
	<path fill="#00060C" d="M7.063,10.355c0,0.365,0,0.695,0,1.065c-0.876,0-1.736,0-2.594-0.004c-0.054,0-0.121-0.028-0.158-0.064
		c-0.323-0.314-0.641-0.635-1.003-0.997C4.597,10.355,5.813,10.355,7.063,10.355z"/>
	<path fill="#00060C" d="M50.564,10.358c1.287,0,2.502,0,3.744,0c0,0.338,0,0.679,0,1.062c-0.859,0-1.722,0-2.578-0.004
		c-0.063,0-0.139-0.041-0.186-0.086C51.23,11.024,50.92,10.713,50.564,10.358z"/>
	<path fill="#00060C" d="M26.933,14.13c-0.369-0.38-0.687-0.698-0.992-1.026c-0.049-0.056-0.064-0.154-0.064-0.229
		c-0.005-0.827-0.003-1.653-0.003-2.507c0.354,0,0.694,0,1.059,0C26.933,11.584,26.933,12.809,26.933,14.13z"/>
	<path fill="#00060C" d="M22.048,14.648c-0.365,0-0.696,0-1.055,0c0-1.224,0-2.446,0-3.753c0.357,0.361,0.674,0.679,0.986,1.002
		c0.036,0.038,0.065,0.104,0.067,0.158C22.05,12.914,22.048,13.773,22.048,14.648z"/>
	<path fill="#00060C" d="M4.882,14.648c-1.288,0-2.503,0-3.737,0c0-0.348,0-0.68,0-1.063c0.531,0,1.072,0.05,1.6-0.016
		c0.782-0.09,1.395,0.128,1.853,0.775C4.665,14.439,4.756,14.52,4.882,14.648z"/>
	<path fill="#00060C" d="M48.414,13.587c0.848,0,1.661-0.007,2.477,0.003c0.105,0,0.236,0.051,0.314,0.118
		c0.311,0.28,0.604,0.579,0.963,0.929c-1.301,0-2.521,0-3.754,0C48.414,14.29,48.414,13.941,48.414,13.587z"/>
	<path fill="#00060C" d="M36.614,11.936c0.879,0,1.726,0,2.594,0c-0.338,0.355-0.646,0.724-1.005,1.037
		c-0.104,0.092-0.344,0.032-0.521,0.035c-0.347,0.004-0.693,0-1.067,0C36.614,12.646,36.614,12.309,36.614,11.936z"/>
	<path fill="#00060C" d="M16.719,12.979c0-0.354,0-0.676,0-1.025c0.707,0,1.408,0,2.133,0c0,0.335,0,0.674,0,1.025
		C18.137,12.979,17.43,12.979,16.719,12.979z"/>
	<g>
		<path fill="#27B2F9" d="M12.404,13.287c-0.073,0.146-0.167,0.32-0.282,0.466c-0.583,0.737-1.515,1.003-2.452,0.776
			c-1.462-0.354-2.334-2.394-1.03-3.711c0.087-0.086,0.18-0.17,0.249-0.272c0.053-0.041,0.103-0.091,0.152-0.132
			c0.017-0.012,0.031-0.022,0.047-0.033c0.017-0.008,0.033-0.016,0.05-0.025c0.005-0.003,0.01-0.008,0.015-0.011
			c0.024-0.013,0.047-0.022,0.072-0.038c0.043-0.025,0.092-0.05,0.142-0.072c0.214-0.009,0.409-0.113,0.619-0.145
			c1.037-0.159,1.919,0.414,2.299,1.068c0.034,0.057,0.063,0.163,0.092,0.163h-0.909c-0.076-0.072-0.101-0.231-0.048-0.38
			c0.075-0.208-0.024-0.278-0.17-0.371c-0.17-0.107-0.285-0.063-0.413,0.083c-0.229,0.266-0.552,0.244-0.725-0.064
			c-0.125-0.227-0.279-0.165-0.46-0.125c-0.023,0.005-0.042,0.013-0.061,0.021c-0.005,0.003-0.01,0.005-0.016,0.009
			c-0.017,0.008-0.032,0.019-0.042,0.032c-0.002,0.001-0.004,0.003-0.006,0.004c-0.002,0.001-0.003,0.004-0.005,0.008
			c-0.003,0-0.006,0.004-0.007,0.009c-0.008,0.011-0.014,0.023-0.02,0.036c0,0.005,0,0.005-0.001,0.008
			c-0.001,0.005-0.001,0.01-0.003,0.016c0,0.004-0.003,0.009-0.003,0.014c-0.001,0.007-0.001,0.016-0.001,0.024
			c0,0.003,0,0.003,0,0.004c-0.001,0.044,0.004,0.092,0.009,0.14c0.004,0.044,0.002,0.088-0.003,0.129c0,0.003,0,0.006-0.001,0.009
			c-0.003,0.016-0.006,0.033-0.009,0.047c-0.001,0.006-0.004,0.015-0.007,0.021c-0.016,0.057-0.042,0.104-0.077,0.144
			c-0.008,0.011-0.018,0.02-0.026,0.03c-0.1,0.094-0.25,0.131-0.421,0.084c-0.166-0.044-0.283-0.047-0.37,0.13
			c-0.078,0.16-0.105,0.282,0.046,0.424c0.277,0.265,0.25,0.542-0.066,0.748c-0.146,0.094-0.213,0.196-0.144,0.37
			c0.062,0.157,0.127,0.276,0.342,0.255c0.36-0.041,0.579,0.233,0.459,0.569c-0.055,0.153-0.024,0.207,0.101,0.306
			c0.217,0.17,0.363,0.1,0.523-0.066c0.198-0.211,0.549-0.174,0.685,0.078c0.091,0.17,0.181,0.231,0.381,0.179
			c0.212-0.062,0.253-0.172,0.245-0.373c-0.016-0.313,0.218-0.49,0.531-0.431c0.183,0.031,0.32-0.012,0.416-0.157h0.303V13.287z"/>
		<path fill="#00060C" d="M12.509,10.619c-0.187-0.234-0.068-0.37,0.009-0.563c0.089-0.229,0.214-0.129,0.35-0.076
			c0.077,0.028,0.151,0,0.185-0.082c0.037-0.091-0.025-0.139-0.083-0.186c-0.346-0.281-0.46-0.257-0.676,0.145
			c-0.063,0.123-0.115,0.253-0.197,0.365c-0.122,0.171-0.086,0.281,0.058,0.431c0.689,0.729,0.868,1.813,0.443,2.714
			c-0.438,0.925-1.19,1.432-2.204,1.46c-0.976,0.028-1.76-0.396-2.248-1.265c-0.508-0.904-0.437-1.813,0.138-2.66
			c0.111-0.167,0.224-0.371,0.412-0.474c0.009-0.022,0.029-0.041,0.059-0.047c0.114-0.031,0.194-0.126,0.288-0.191
			c0.086-0.06,0.18-0.088,0.274-0.122c0.013-0.004,0.023-0.012,0.036-0.017c0.04-0.032,0.089-0.05,0.139-0.057
			c0.424-0.043,0.836-0.251,1.276-0.107c0.11,0.035,0.178,0.01,0.231-0.098c0.124-0.248,0.253-0.493,0.387-0.735
			c0.098-0.176-0.046-0.205-0.146-0.242c-0.146-0.057-0.277-0.263-0.454-0.103c-0.079,0.071-0.032,0.175,0.075,0.233
			c0.059,0.033,0.149,0.038,0.16,0.135c0.02,0.197-0.295,0.499-0.504,0.48c-1.165-0.095-2.308,0.608-2.766,1.703
			c-0.459,1.091-0.16,2.402,0.721,3.166c1.11,0.957,2.722,0.933,3.772-0.06C13.297,13.377,13.424,11.767,12.509,10.619z"/>
		<path fill="#FF004F" d="M12.1,13.287c-0.096,0.146-0.233,0.189-0.415,0.156c-0.314-0.06-0.549,0.125-0.533,0.438
			c0.009,0.198-0.032,0.311-0.245,0.367c-0.2,0.059-0.291-0.003-0.381-0.175c-0.136-0.255-0.487-0.294-0.685-0.081
			c-0.16,0.171-0.306,0.234-0.523,0.066c-0.125-0.096-0.156-0.151-0.101-0.307c0.121-0.336-0.099-0.609-0.459-0.568
			c-0.215,0.021-0.28-0.096-0.342-0.256c-0.069-0.174-0.001-0.275,0.144-0.369c0.315-0.205,0.345-0.483,0.066-0.749
			c-0.151-0.142-0.124-0.264-0.046-0.424c0.086-0.177,0.204-0.174,0.37-0.13c0.172,0.05,0.321,0.01,0.421-0.084
			c0.008-0.011,0.018-0.02,0.026-0.03c0.034-0.04,0.061-0.087,0.077-0.144c0.003-0.006,0.006-0.012,0.007-0.021
			c0.003-0.015,0.006-0.032,0.009-0.047c0.001-0.003,0.001-0.006,0.001-0.009c0.005-0.041,0.007-0.085,0.003-0.129
			c-0.003-0.047-0.01-0.096-0.009-0.14c0-0.001,0-0.001,0-0.004c0-0.008,0-0.017,0.001-0.023c0-0.006,0.003-0.011,0.003-0.015
			c0.001-0.006,0.001-0.011,0.003-0.016c0.001-0.003,0.001-0.003,0.004-0.008c0.003-0.013,0.009-0.025,0.017-0.036
			c0.001-0.005,0.004-0.006,0.007-0.009c0.002-0.003,0.004-0.006,0.005-0.008s0.004-0.003,0.006-0.004
			c0.01-0.013,0.025-0.024,0.042-0.032c0.006-0.003,0.011-0.006,0.016-0.007c0.018-0.008,0.038-0.014,0.061-0.021
			c0.181-0.042,0.334-0.102,0.46,0.126c0.173,0.307,0.496,0.33,0.725,0.066c0.128-0.148,0.243-0.189,0.413-0.082
			c0.146,0.094,0.245,0.156,0.17,0.364c-0.053,0.148-0.028,0.308,0.048,0.38h-1.12v0.062c0,0-0.044,0.003-0.061,0.003
			c-0.009,0-0.022,0.001-0.03,0.001c-0.009,0-0.02,0.002-0.028,0.002c-0.007,0.003-0.016,0.003-0.025,0.003
			c-0.016,0.003-0.033,0.004-0.048,0.007c-0.007,0.002-0.016,0.006-0.023,0.006c-0.008,0.003-0.016,0.003-0.024,0.006
			c-0.007,0-0.017,0.003-0.023,0.005c-0.016,0.004-0.034,0.01-0.049,0.015c-0.007,0.003-0.013,0.003-0.018,0.006
			c-0.007,0.003-0.015,0.004-0.023,0.01c-0.007,0-0.014,0.003-0.021,0.006c-0.014,0.006-0.031,0.013-0.044,0.019
			c-0.015,0.008-0.027,0.013-0.041,0.02c-0.013,0.009-0.024,0.012-0.037,0.021c-0.001,0.001-0.001,0.001-0.003,0.004
			c-0.02,0.01-0.04,0.022-0.059,0.035c-0.079,0.051-0.146,0.113-0.207,0.185c-0.006,0.005-0.009,0.011-0.015,0.018
			c-0.008,0.012-0.018,0.023-0.026,0.033c-0.003,0.006-0.008,0.013-0.013,0.02c-0.014,0.019-0.026,0.037-0.037,0.058
			c-0.006,0.008-0.009,0.013-0.011,0.021c-0.006,0.006-0.009,0.012-0.013,0.021c-0.003,0.008-0.007,0.014-0.01,0.021
			c-0.011,0.021-0.021,0.047-0.032,0.07c-0.001,0.004-0.003,0.013-0.005,0.019c-0.023,0.057-0.039,0.116-0.05,0.179
			c-0.002,0.016-0.004,0.028-0.005,0.041c-0.003,0.034-0.006,0.069-0.006,0.104c-0.001,0.522,0.429,0.959,0.959,0.968
			c0.014,0,0.027,0,0.041,0c0.007,0,0.015,0,0.021,0c0.019-0.002,0.036-0.002,0.052-0.004c0.005-0.002,0.009-0.002,0.012-0.002
			c0.01,0,0.017,0,0.023-0.003c0.001,0,0.003,0,0.003,0c0.011-0.003,0.021-0.003,0.032-0.007c0.013-0.003,0.025-0.005,0.037-0.009
			c0.009,0,0.019,0.009,0.029,0.006c0.011-0.002,0.021,0.003,0.032,0.003h1.5V13.287z"/>
	</g>
	<g>
		<path fill="#FF004F" d="M30.895,12.1c-0.157,0-0.311,0-0.462,0c-0.304,0-0.582,0.057-0.747-0.359
			c-0.152-0.388-0.737-0.536-1.189-0.347c-0.307,0.132-0.57,0.375-0.845,0.578c-0.109,0.08-0.195,0.188-0.349,0.335
			c0.011-0.154,0.004-0.223,0.022-0.289c0.261-0.937,1.237-1.688,2.208-1.697c0.348-0.005,0.695-0.004,1.042-0.004
			c0.228,0.004,0.438-0.021,0.628,0.203c0.14,0.162,0.395,0.132,0.572-0.055c0.157-0.163,0.802-0.218,0.968-0.08
			c0.05,0.042,0.104,0.115,0.105,0.176c0.011,0.307,0.013,0.612,0.005,0.917c-0.002,0.062-0.062,0.175-0.096,0.175
			c-0.314,0.01-0.685,0.106-0.928-0.028c-0.393-0.217-0.694-0.199-0.857,0.229C30.943,11.929,30.923,12.006,30.895,12.1z"/>
		<path fill="#00060C" d="M29.864,14.82c0.366,0,0.674,0,1.045,0c-0.171,0.332-0.329,0.633-0.518,0.998
			C30.208,15.467,30.048,15.164,29.864,14.82z"/>
		<path fill="#00060C" d="M30.702,13.471c0-0.296-0.008-0.592,0.003-0.887c0.005-0.061,0.068-0.12,0.104-0.178
			c0.04,0.055,0.11,0.111,0.112,0.167c0.007,0.622,0.007,1.245,0,1.862c0,0.064-0.068,0.127-0.103,0.188
			c-0.04-0.067-0.108-0.14-0.113-0.209C30.694,14.104,30.702,13.786,30.702,13.471z"/>
		<path fill="#00060C" d="M30.499,12.428c0,0.68,0.002,1.358-0.003,2.037c-0.001,0.055-0.066,0.105-0.102,0.16
			c-0.036-0.051-0.11-0.1-0.11-0.148c-0.007-0.642-0.007-1.283,0-1.922c0.002-0.058,0.09-0.115,0.135-0.172
			C30.445,12.398,30.472,12.413,30.499,12.428z"/>
		<path fill="#00060C" d="M29.933,14.641c-0.027-0.082-0.074-0.168-0.076-0.25c-0.007-0.594-0.007-1.187,0.002-1.779
			c0.001-0.067,0.071-0.133,0.108-0.204c0.034,0.071,0.099,0.137,0.101,0.204c0.009,0.604,0.008,1.207,0.001,1.813
			c0,0.07-0.03,0.141-0.047,0.21C29.993,14.637,29.964,14.641,29.933,14.641z"/>
	</g>
	<path fill="#00060C" d="M59.909,14.621c-0.234,0-0.466,0-0.702,0c-0.166-1.535-0.329-3.041-0.496-4.551h1.561
		c-0.047,0.134,0.071,0.263-0.015,0.389c-0.007,0.009,0,0.034,0.007,0.048c0.041,0.058,0.036,0.105,0.008,0.173
		c-0.049,0.102,0.025,0.215,0.14,0.232c0.042,0.009,0.087,0.008,0.151,0.009c0,0.147-0.002,0.288,0,0.43
		c0,0.028,0.037,0.054,0.054,0.082c0.015-0.028,0.036-0.054,0.036-0.082c0.008-0.139,0.002-0.275,0.002-0.412
		c0.08-0.014,0.147-0.012,0.195-0.044c0.051-0.031,0.115-0.105,0.104-0.146c-0.021-0.102,0.015-0.212-0.007-0.294
		c-0.043-0.135,0.035-0.254,0-0.387c0.033-0.003,0.054-0.003,0.072-0.006c0.033-0.01,0.066-0.025,0.099-0.038
		c-0.029-0.024-0.052-0.06-0.082-0.076c-0.047-0.027-0.101-0.039-0.153-0.058c-0.727-0.258-1.449-0.516-2.172-0.776
		c-0.044-0.016-0.104-0.05-0.111-0.085c-0.027-0.176-0.041-0.355-0.063-0.542h0.597c0.007,0.082,0.015,0.155,0.021,0.231
		c0.015,0.003,0.029,0.003,0.039,0.003v-0.32c-0.185,0-0.381-0.004-0.57,0.001c-0.079,0.001-0.121-0.025-0.157-0.094
		c-0.149-0.277-0.305-0.553-0.458-0.829c-0.014-0.03-0.035-0.058-0.063-0.098C57.77,7.697,57.6,7.999,57.436,8.3
		c-0.039,0.074-0.082,0.104-0.164,0.101C57.074,8.395,56.877,8.4,56.665,8.4c0.006,0.111,0.015,0.209,0.019,0.307l0.063-0.003
		c0-0.046-0.008-0.096,0-0.141c0.006-0.03,0.034-0.08,0.054-0.08c0.182-0.006,0.365-0.006,0.561-0.006
		c-0.021,0.171-0.049,0.317-0.053,0.462c-0.004,0.113-0.057,0.156-0.156,0.192c-0.754,0.262-1.508,0.529-2.26,0.798
		c-0.049,0.017-0.088,0.06-0.134,0.091c0.05,0.016,0.097,0.028,0.146,0.044c0.009,0.003,0.016,0.009,0.021,0.012
		c-0.018,0.123,0.068,0.246,0,0.373c-0.009,0.02,0.02,0.061,0.022,0.094c0.004,0.028,0.011,0.062,0.004,0.089
		c-0.071,0.186-0.007,0.277,0.194,0.281c0.024,0,0.047,0.003,0.09,0.007c0,0.121-0.006,0.237,0,0.354
		c0.003,0.051,0.033,0.101,0.05,0.15c0.011-0.047,0.03-0.096,0.034-0.145c0.009-0.117,0-0.232,0-0.298
		c0.121-0.079,0.261-0.116,0.281-0.192c0.039-0.131,0.008-0.282,0-0.424c0-0.006-0.011-0.014-0.011-0.021
		c0-0.022-0.008-0.047,0-0.069c0.011-0.068,0.027-0.132,0.046-0.206h1.525c-0.003,0.046-0.003,0.074-0.007,0.103
		c-0.062,0.506-0.123,1.01-0.187,1.515c-0.109,0.92-0.228,1.84-0.334,2.756c-0.015,0.131-0.063,0.16-0.185,0.16
		c-0.833-0.004-1.667-0.004-2.5-0.004c0.007,0.021,0.011,0.039,0.011,0.062c1.487,0.019,3.943,0.024,5.928,0.021
		C59.895,14.661,59.9,14.643,59.909,14.621z M60.787,10.82c-0.109,0.019-0.229,0.023-0.338,0.016
		c-0.039-0.003-0.075-0.062-0.11-0.095c0.035-0.036,0.071-0.084,0.116-0.101c0.048-0.017,0.107-0.006,0.16-0.006v0.003
		c0.057,0,0.113-0.009,0.164,0.003c0.039,0.011,0.097,0.061,0.093,0.079C60.861,10.761,60.822,10.815,60.787,10.82z M60.793,10.546
		c-0.061,0.015-0.13,0.003-0.197,0.003v0.003c-0.054,0-0.113,0.012-0.164-0.003c-0.035-0.013-0.082-0.06-0.089-0.097
		c-0.004-0.027,0.046-0.088,0.078-0.091c0.124-0.013,0.251-0.013,0.376,0c0.029,0.003,0.079,0.06,0.079,0.094
		C60.876,10.487,60.829,10.537,60.793,10.546z M60.872,10.179c0,0.031-0.056,0.076-0.097,0.088
		c-0.057,0.016-0.116,0.005-0.178,0.005c-0.054,0-0.109,0.011-0.16-0.005c-0.039-0.013-0.096-0.06-0.096-0.091
		c0-0.034,0.053-0.098,0.085-0.101c0.12-0.012,0.241-0.012,0.362,0.003C60.826,10.081,60.876,10.145,60.872,10.179z M60.829,9.956
		c0,0.009-0.003,0.02-0.007,0.033c-0.488,0-0.975,0-1.461,0c-0.193,0-0.383,0.001-0.569-0.004c-0.035,0-0.092-0.037-0.095-0.063
		c-0.033-0.243-0.059-0.488-0.088-0.757C59.364,9.433,60.098,9.693,60.829,9.956z M58.639,10.164
		c0.075,0.695,0.153,1.376,0.229,2.057c-0.016,0.008-0.027,0.021-0.039,0.029c-0.012-0.027-0.021-0.057-0.035-0.078
		c-0.249-0.354-0.498-0.707-0.745-1.066c-0.022-0.03-0.03-0.099-0.009-0.127c0.178-0.262,0.365-0.52,0.555-0.781
		C58.6,10.188,58.609,10.185,58.639,10.164z M58.846,12.38h-1.842c0.311-0.428,0.611-0.84,0.926-1.274
		C58.236,11.532,58.531,11.945,58.846,12.38z M57.932,10.965c-0.214-0.299-0.416-0.585-0.634-0.89h1.284
		C58.361,10.374,58.15,10.663,57.932,10.965z M58.575,9.978h-1.277c0.222-0.274,0.429-0.528,0.646-0.795
		C58.156,9.45,58.359,9.704,58.575,9.978z M57.495,8.488h0.901c-0.155,0.198-0.299,0.374-0.453,0.565
		C57.79,8.862,57.65,8.683,57.495,8.488z M58.579,9.852c-0.183-0.223-0.358-0.448-0.563-0.703c0.172,0,0.309-0.004,0.442,0.005
		c0.028,0,0.069,0.049,0.073,0.082C58.563,9.434,58.582,9.635,58.579,9.852z M58.52,9.065h-0.48c0.143-0.176,0.268-0.332,0.42-0.521
		C58.482,8.733,58.501,8.892,58.52,9.065z M57.949,7.537c0.16,0.291,0.314,0.564,0.473,0.855h-0.943
		C57.633,8.106,57.782,7.836,57.949,7.537z M57.434,8.54c0.146,0.187,0.271,0.344,0.414,0.52h-0.477
		C57.389,8.894,57.41,8.736,57.434,8.54z M57.35,9.228c0.002-0.028,0.039-0.074,0.062-0.074c0.142-0.008,0.278-0.005,0.454-0.005
		c-0.203,0.253-0.385,0.477-0.566,0.703l-0.023-0.013C57.298,9.635,57.32,9.433,57.35,9.228z M55.086,10.072
		c0.122-0.013,0.246-0.013,0.367-0.002c0.033,0.003,0.082,0.068,0.082,0.103c-0.004,0.033-0.059,0.079-0.098,0.091
		c-0.053,0.016-0.115,0.003-0.172,0.003c-0.059,0-0.115,0.012-0.166-0.003c-0.037-0.012-0.096-0.057-0.096-0.091
		C55.002,10.14,55.057,10.075,55.086,10.072z M55.438,10.83c-0.047,0.012-0.105-0.003-0.158-0.006c0,0.003,0,0.006,0,0.013
		c-0.062,0-0.12,0.012-0.174-0.004c-0.043-0.014-0.076-0.064-0.109-0.097c0.029-0.034,0.063-0.092,0.096-0.095
		c0.121-0.012,0.245-0.011,0.361,0.001c0.033,0.002,0.086,0.068,0.082,0.098C55.531,10.774,55.479,10.818,55.438,10.83z
		 M55.443,10.545c-0.053,0.016-0.114,0.005-0.174,0.005c-0.055,0-0.115,0.013-0.164-0.005c-0.043-0.014-0.072-0.061-0.106-0.095
		c0.03-0.035,0.06-0.093,0.097-0.096c0.117-0.013,0.236-0.013,0.353,0c0.034,0.003,0.088,0.064,0.088,0.098
		C55.535,10.484,55.482,10.534,55.443,10.545z M55.053,9.981c0-0.008,0-0.019,0-0.028c0.732-0.258,1.469-0.518,2.225-0.783
		c-0.035,0.282-0.065,0.545-0.104,0.811H55.053L55.053,9.981z M57.234,10.145c0.043,0.05,0.067,0.075,0.089,0.104
		c0.159,0.223,0.321,0.453,0.487,0.674c0.063,0.085,0.057,0.14-0.013,0.225c-0.233,0.309-0.454,0.626-0.682,0.938
		c-0.031,0.048-0.067,0.096-0.104,0.143c-0.01-0.004-0.021-0.006-0.031-0.011C57.063,11.535,57.148,10.855,57.234,10.145z
		 M56.734,14.501c-0.012-0.008-0.02-0.011-0.029-0.017c0.077-0.646,0.156-1.291,0.236-1.959c0.3,0.318,0.584,0.619,0.871,0.929
		C57.48,13.777,57.105,14.139,56.734,14.501z M59.08,14.566c-0.352-0.375-0.707-0.748-1.066-1.133
		c0.269-0.257,0.563-0.543,0.885-0.854c0.076,0.675,0.146,1.322,0.218,1.97C59.105,14.559,59.092,14.561,59.08,14.566z"/>
	<polygon fill="#00060C" points="47.396,10.308 47.396,11.171 43.867,11.171 43.867,13.766 47.396,13.766 47.396,14.628 
		42.985,14.628 42.985,10.308 	"/>
	<rect x="44.971" y="12.035" fill="#FF0000" width="4.176" height="0.863"/>
	<path fill="#00060C" d="M62.96,9.624c0.974,1.687,1.948,3.373,2.929,5.067c-1.515,0-3.015,0-4.522,0
		c-0.009-0.019,0.009-0.03,0.019-0.047c0.16-0.278,0.319-0.557,0.479-0.838c0.021-0.035,0.048-0.05,0.093-0.05
		c0.666,0,1.33,0,1.998,0c0.039,0,0.064,0.011,0.082,0.045c0.072,0.126,0.146,0.249,0.214,0.374
		c0.021,0.035,0.045,0.051,0.084,0.051c0.136-0.004,0.267,0,0.401,0c0.082-0.004,0.082-0.004,0.043-0.072
		c-0.209-0.36-0.42-0.725-0.629-1.09c-0.521-0.898-1.039-1.795-1.558-2.693c-0.028-0.05-0.03-0.088,0-0.139
		c0.113-0.192,0.224-0.387,0.339-0.582C62.934,9.642,62.938,9.629,62.96,9.624z"/>
	<path fill="#27B2F9" d="M62.287,10.773c0.482,0.839,0.963,1.668,1.449,2.509c-0.524,0-1.043,0-1.566,0
		c0.061-0.107,0.121-0.212,0.182-0.315c0.057-0.104,0.121-0.207,0.178-0.311c0.015-0.02,0.027-0.036,0.011-0.065
		c-0.085-0.143-0.166-0.284-0.248-0.43c-0.063,0.028-0.078,0.095-0.104,0.146c-0.401,0.729-0.83,1.44-1.244,2.166
		c-0.021,0.037-0.049,0.074-0.066,0.116c-0.031,0.091-0.094,0.118-0.191,0.113c-0.195-0.011-0.393-0.003-0.588-0.003
		c-0.021,0-0.053,0.015-0.066-0.01c-0.012-0.022,0.015-0.045,0.025-0.063c0.313-0.543,0.629-1.088,0.94-1.629
		c0.423-0.732,0.847-1.467,1.271-2.201C62.27,10.794,62.271,10.789,62.287,10.773z"/>
	<g>
		<path fill="#4DB325" d="M42.055,14.532c-0.06,0.03-0.122,0.06-0.184,0.089c-0.277,0.064-0.482-0.077-0.664-0.284
			c-0.021-0.035-0.04-0.071-0.061-0.106c-0.061-0.15-0.066-0.31-0.067-0.47c0-0.171,0-0.338,0-0.508s0-0.336,0-0.506s0-0.34,0-0.507
			c0-0.17,0.001-0.338,0.001-0.509c0-0.167,0-0.336,0-0.508c0-0.168,0-0.337,0-0.504c0-0.17,0-0.339,0-0.51c0-0.167,0-0.335,0-0.506
			C41.088,9.502,41.105,9.3,41.066,9.1c-0.01-0.092-0.063-0.157-0.113-0.225c-0.038-0.05-0.069-0.096-0.038-0.164l0.008-0.007
			l0.011-0.01c0.08-0.003,0.161-0.008,0.24-0.013c0.121,0,0.243,0,0.364,0c0.012,0,0.021,0,0.031,0c0.021,0,0.041,0,0.061,0
			c0.152,0,0.307,0,0.459,0c0.15,0.005,0.301,0.009,0.452,0.016c0.009,0.009,0.021,0.021,0.028,0.031
			c0.025,0.067-0.003,0.118-0.044,0.167c-0.097,0.117-0.136,0.261-0.134,0.417c0,0.08-0.008,0.16-0.003,0.237
			c0.009,0.091-0.026,0.12-0.104,0.117c-0.121-0.005-0.242-0.002-0.365-0.002c-0.036,0.002-0.086-0.014-0.088,0.058
			c-0.002,0.064,0.044,0.063,0.084,0.063c0.158,0,0.314,0.001,0.473,0.001c0.001,0.143,0.004,0.283,0.006,0.422
			c0.01,0.117-0.021,0.173-0.142,0.159c-0.108-0.014-0.22-0.003-0.333-0.003c-0.039,0-0.086-0.004-0.085,0.065
			c0.001,0.069,0.052,0.053,0.089,0.053c0.082,0.003,0.162,0.003,0.244,0.003c0.213,0,0.213,0,0.227,0.23
			c-0.004,0.063-0.013,0.125-0.005,0.185c0.015,0.126-0.022,0.188-0.146,0.171c-0.089-0.014-0.182-0.012-0.272-0.003
			c-0.052,0-0.138-0.045-0.137,0.068c0.001,0.099,0.083,0.054,0.13,0.059c0.142,0.02,0.289-0.034,0.43,0.029c0,0.17,0,0.339,0,0.506
			c-0.084,0.085-0.189,0.014-0.277,0.047c-0.081-0.001-0.161-0.001-0.242-0.003c-0.02-0.006-0.043-0.012-0.037,0.026
			c-0.016,0.057-0.014,0.102,0.055,0.101c0.064-0.003,0.131-0.005,0.195-0.008c0.286,0.018,0.286,0.018,0.307,0.345
			c-0.014,0.232-0.014,0.232-0.23,0.238c-0.017,0.002-0.031,0.004-0.047,0.006c-0.016,0.006-0.033,0.009-0.05,0.014
			c-0.058-0.02-0.114-0.02-0.171,0c-0.023-0.02-0.045-0.033-0.059,0.013c0,0.023,0.002,0.046,0.002,0.071
			c0.078,0.057,0.166,0.02,0.25,0.021c0.058,0,0.121,0.012,0.18,0.004c0.102-0.017,0.131,0.039,0.125,0.141
			c-0.004,0.033-0.006,0.063-0.006,0.098c-0.004,0.33-0.004,0.33-0.301,0.348c-0.055-0.002-0.109-0.008-0.166-0.006
			c-0.035,0.004-0.088-0.019-0.09,0.051c-0.004,0.074,0.041,0.078,0.09,0.078c0.121-0.002,0.242,0.004,0.362-0.002
			c0.077-0.004,0.108,0.021,0.105,0.112c-0.005,0.11,0.001,0.222,0.005,0.335c-0.008,0.135-0.008,0.274-0.044,0.405
			C42.284,14.322,42.178,14.438,42.055,14.532z"/>
		<path fill="#4DB325" d="M42.543,3.658c0.137-0.106,0.254-0.247,0.43-0.297c0.002,0.012,0.002,0.022,0.004,0.033
			c-0.006,0.055-0.022,0.112-0.018,0.166C43,3.921,42.944,4.262,42.754,4.578c-0.068,0.068-0.138,0.135-0.207,0.203
			c-0.236,0.104-0.246,0.103-0.305-0.146c-0.016-0.067-0.023-0.137-0.037-0.206c0-0.021,0-0.043,0-0.064
			c0.024-0.274,0.158-0.496,0.334-0.699L42.543,3.658z"/>
		<path fill="#4DB325" d="M40.894,3.754c0.05-0.111,0.101-0.226,0.159-0.355c0.049,0.073,0.084,0.128,0.119,0.183
			c0.003,0.023,0.01,0.045,0.033,0.055c0.133,0.237,0.262,0.477,0.279,0.758c0,0.032,0,0.063,0.002,0.096
			c-0.014,0.146-0.041,0.288-0.131,0.407c-0.035,0.042-0.064,0.11-0.145,0.075c-0.145-0.117-0.258-0.259-0.338-0.428
			c-0.014-0.059-0.027-0.119-0.041-0.178C40.815,4.158,40.831,3.954,40.894,3.754z"/>
		<path fill="#4DB325" d="M42.719,5.01c0.051-0.146,0.146-0.269,0.218-0.4c0.032-0.04,0.066-0.077,0.099-0.116
			c0.131-0.108,0.265-0.217,0.398-0.327c0.033-0.021,0.067-0.044,0.1-0.068c0.135-0.036,0.241-0.138,0.381-0.162
			c-0.027,0.246-0.055,0.489-0.084,0.732c-0.032,0.122-0.067,0.244-0.098,0.366c-0.084,0.152-0.166,0.303-0.252,0.456
			c-0.008,0.007-0.018,0.016-0.023,0.025c-0.183,0.204-0.391,0.363-0.67,0.405c-0.137-0.048-0.085-0.187-0.129-0.277
			c0-0.123,0-0.244,0-0.365c0-0.01,0.002-0.02,0.004-0.03C42.679,5.169,42.699,5.089,42.719,5.01z"/>
		<path fill="#4DB325" d="M40.23,4.005c0.028,0.07,0.07,0.131,0.121,0.186c0.167,0.263,0.349,0.515,0.442,0.817
			c0.019,0.091,0.036,0.181,0.052,0.271c0.001,0.011,0.003,0.02,0.003,0.031c0,0.11,0,0.223,0,0.334
			c-0.02,0.082-0.042,0.164-0.063,0.248c-0.033,0.058-0.064,0.119-0.099,0.179c-0.067,0.096-0.14,0.096-0.225,0.016
			c-0.047-0.042-0.104-0.076-0.155-0.113c-0.007-0.007-0.015-0.017-0.022-0.023c-0.078-0.097-0.17-0.186-0.231-0.297
			c-0.187-0.328-0.208-0.681-0.16-1.045c0.045-0.17,0.094-0.341,0.141-0.511c0.035-0.072,0.068-0.141,0.104-0.214
			C40.189,3.918,40.18,3.983,40.23,4.005z"/>
		<path fill="#4DB325" d="M43.43,7.932c-0.212,0.135-0.421,0.265-0.685,0.283c-0.136,0.009-0.21-0.019-0.21-0.169
			c0-0.082-0.021-0.159-0.033-0.239c0.001-0.1,0.001-0.203,0.003-0.305c0.003-0.01,0.003-0.019,0.005-0.028
			c0.006-0.053,0.014-0.11,0.02-0.164c0.087-0.061,0.037-0.16,0.064-0.239c0.085-0.229,0.207-0.437,0.351-0.632
			c0.021-0.027,0.042-0.053,0.064-0.079c0.165-0.099,0.267-0.268,0.425-0.378c0.026-0.014,0.052-0.03,0.078-0.046V5.934l0.008-0.009
			c0.145-0.083,0.287-0.164,0.43-0.248c0.145-0.059,0.287-0.117,0.43-0.176c0.036-0.003,0.076-0.005,0.113-0.008
			c-0.01,0.156-0.096,0.297-0.092,0.457c-0.063,0.308-0.122,0.618-0.226,0.916c-0.067,0.14-0.135,0.28-0.202,0.422
			c-0.032,0.05-0.063,0.099-0.092,0.147c-0.081,0.104-0.163,0.206-0.245,0.309C43.566,7.806,43.498,7.869,43.43,7.932z"/>
		<path fill="#4DB325" d="M40.388,9.146c0.186,0.212,0.342,0.442,0.38,0.734c0.013,0.091-0.012,0.134-0.095,0.151
			c-0.145,0.032-0.293,0.063-0.439,0.094c-0.145-0.001-0.286-0.001-0.429-0.003c-0.331-0.06-0.638-0.186-0.913-0.379
			c-0.06-0.048-0.119-0.096-0.179-0.145c-0.091-0.093-0.183-0.187-0.274-0.282c-0.045-0.056-0.091-0.114-0.138-0.172
			c-0.17-0.261-0.346-0.519-0.455-0.83c0.066,0.013,0.114,0.021,0.163,0.028c0.069,0.028,0.141,0.041,0.217,0.035
			c0.262,0.032,0.523,0.06,0.787,0.088c0.093,0.021,0.186,0.042,0.278,0.063c0.355,0.107,0.676,0.273,0.97,0.498
			C40.302,9.066,40.345,9.105,40.388,9.146z"/>
		<path fill="#4DB325" d="M43.422,8.716c0.03-0.014,0.062-0.03,0.09-0.045c0.407-0.201,0.843-0.249,1.288-0.229
			c0.173,0.025,0.345,0.053,0.519,0.079c0.141,0.038,0.281,0.076,0.422,0.113c0.035,0.019,0.068,0.038,0.104,0.055
			c-0.016,0.014-0.029,0.027-0.045,0.041c-0.01,0.008-0.02,0.012-0.029,0.021c-0.008,0.003-0.021,0.006-0.028,0.009
			c-0.171,0.107-0.314,0.245-0.452,0.387c-0.014,0.009-0.025,0.021-0.037,0.03c-0.288,0.259-0.611,0.464-0.96,0.636
			c-0.039,0.01-0.08,0.015-0.116,0.027c-0.386,0.133-0.776,0.179-1.173,0.072C42.901,9.857,42.8,9.807,42.7,9.749
			c-0.057-0.032-0.092-0.077-0.057-0.146c0.086-0.141,0.176-0.283,0.263-0.426c0.054-0.062,0.106-0.121,0.16-0.181
			C43.186,8.903,43.303,8.81,43.422,8.716z"/>
		<path fill="#4DB325" d="M40.733,8.292c-0.015,0.031-0.028,0.061-0.044,0.093c-0.047,0.054-0.099,0.035-0.154,0.017
			c-0.099-0.033-0.201-0.061-0.302-0.094c-0.235-0.118-0.459-0.256-0.65-0.438c-0.016-0.013-0.031-0.028-0.046-0.041l0.003,0.005
			c-0.012-0.02-0.025-0.039-0.039-0.058l0,0c-0.05-0.066-0.099-0.132-0.149-0.199c-0.045-0.087-0.092-0.173-0.138-0.26
			c-0.06-0.171-0.116-0.342-0.173-0.512c-0.019-0.134-0.039-0.264-0.058-0.399c-0.001-0.019-0.004-0.038-0.004-0.06
			c0-0.01-0.001-0.019-0.001-0.03c0-0.02,0-0.041,0-0.06c0-0.011-0.002-0.02-0.002-0.03c0-0.153,0.002-0.304,0.002-0.457
			c0.001-0.041,0.004-0.082,0.006-0.123C38.99,5.607,39,5.569,39.006,5.53c0.015-0.074,0.047-0.01,0.071-0.006
			c0.05,0.082,0.122,0.144,0.209,0.188l0.011,0.008v0.002c0.045,0.039,0.093,0.078,0.141,0.113c0.414,0.281,0.783,0.605,1.053,1.033
			c0.057,0.11,0.115,0.223,0.174,0.333C40.683,7.251,40.7,7.3,40.717,7.35c0.024,0.102,0.047,0.205,0.071,0.305
			C40.823,7.872,40.792,8.083,40.733,8.292z"/>
		<path fill="#4DB325" d="M39.628,5.097c0,0.014,0,0.028,0,0.044c0,0.09,0.013,0.199-0.069,0.249
			c-0.075,0.044-0.138-0.056-0.209-0.084c-0.098-0.089-0.152-0.204-0.206-0.32c-0.006-0.106-0.009-0.211-0.012-0.318
			c0.003-0.009,0.003-0.017,0.001-0.026c0.003-0.02,0.008-0.04,0.013-0.057c0.011-0.04,0.021-0.077,0.033-0.128
			C39.378,4.644,39.57,4.821,39.628,5.097z"/>
		<path fill="#4DB325" d="M43.971,5.282c-0.066-0.262,0.037-0.455,0.234-0.614c0.043-0.034,0.091-0.061,0.135-0.092
			c0.013-0.004,0.021-0.008,0.035-0.011c0.054-0.021,0.107-0.046,0.162-0.062c0.083-0.024,0.033,0.039,0.038,0.065l0.002,0.004
			c-0.005,0.011-0.013,0.023-0.017,0.035c-0.004,0.021-0.006,0.041-0.011,0.062c-0.006,0.02-0.014,0.042-0.021,0.061
			c-0.004,0.02-0.01,0.039-0.012,0.061c-0.004,0.011-0.011,0.021-0.016,0.03c-0.016,0.044-0.03,0.09-0.048,0.135
			c-0.041,0.056-0.083,0.112-0.124,0.169C44.229,5.212,44.121,5.299,43.971,5.282z"/>
		<path fill="#4DB325" d="M37.984,7.771c-0.223-0.239-0.407-0.502-0.526-0.808c-0.014-0.036-0.041-0.067-0.062-0.101
			c0.016-0.107,0.085-0.021,0.126-0.035c0.3,0.085,0.619,0.099,0.912,0.214c0.116,0.062,0.232,0.126,0.349,0.188
			c0,0.01,0.004,0.013,0.014,0.013c0.011,0.006,0.019,0.012,0.03,0.016c0.035,0.03,0.068,0.058,0.103,0.086
			c0.143,0.143,0.259,0.3,0.328,0.491c0.002,0.025-0.001,0.052,0.005,0.073c0.039,0.132-0.017,0.186-0.145,0.189
			c-0.116,0.006-0.229,0.016-0.346,0.022c-0.013-0.002-0.023-0.002-0.035-0.003c-0.008-0.003-0.017-0.003-0.025-0.001
			c-0.022-0.001-0.042-0.004-0.063-0.008c-0.041-0.006-0.082-0.016-0.123-0.025c-0.03-0.009-0.06-0.021-0.093-0.033
			c-0.164-0.071-0.307-0.174-0.451-0.278H37.984z"/>
		<path fill="#4DB325" d="M44.827,7.009c0.062-0.011,0.123-0.021,0.184-0.031c0.023-0.004,0.044-0.01,0.064-0.013
			c0.021,0.008,0.041,0.008,0.059-0.011c0.226-0.009,0.445,0.019,0.668,0.034c0.009,0.05-0.049,0.054-0.062,0.092
			c-0.086,0.061-0.141,0.15-0.201,0.239c-0.096,0.11-0.191,0.223-0.288,0.333c-0.042,0.041-0.084,0.082-0.127,0.123
			c-0.101,0.066-0.199,0.132-0.297,0.198c-0.146,0.077-0.298,0.125-0.455,0.171c-0.153,0.011-0.306,0.001-0.455-0.038
			c-0.201-0.09-0.043-0.218-0.037-0.332c0.013-0.025,0.024-0.054,0.037-0.082c0.085-0.119,0.157-0.25,0.267-0.35
			c0.076-0.059,0.15-0.115,0.225-0.171C44.548,7.116,44.688,7.063,44.827,7.009z"/>
		<path fill="#4DB325" d="M42.361,6.895c-0.028,0.14-0.057,0.282-0.083,0.424c-0.113,0.28-0.237,0.55-0.5,0.723
			c-0.048,0.032-0.09,0.069-0.147,0.069c-0.092-0.11-0.182-0.223-0.273-0.336c-0.054-0.097-0.107-0.199-0.16-0.302
			c-0.028-0.06-0.027-0.135-0.08-0.185c-0.023-0.123-0.045-0.246-0.068-0.365c0-0.154,0-0.305,0-0.458
			c0.043-0.171,0.084-0.345,0.126-0.516c0.021-0.017,0.03-0.037,0.025-0.063c0.054-0.12,0.106-0.241,0.16-0.361
			c0.098-0.153,0.194-0.308,0.294-0.46c0.006-0.007,0.013-0.017,0.01-0.026c0.099-0.063,0.13-0.189,0.238-0.248
			c0.053,0.089,0.029,0.199,0.093,0.277c0.011,0.1,0.056,0.184,0.097,0.271c0.012,0.053,0.021,0.108,0.056,0.153
			c0.052,0.162,0.104,0.325,0.155,0.487c0.008,0.123,0.022,0.245,0.059,0.364C42.361,6.527,42.361,6.71,42.361,6.895z"/>
		<path fill="#4DB325" d="M44.559,6.409c0.18-0.324,0.474-0.461,0.815-0.522c0.078,0.021,0.167-0.046,0.239,0.03
			c-0.129,0.146-0.184,0.338-0.299,0.488l0,0c-0.01,0.013-0.02,0.025-0.028,0.038c-0.104,0.088-0.193,0.192-0.319,0.252
			c-0.046,0.019-0.091,0.044-0.138,0.06c-0.106,0.038-0.237,0.066-0.315-0.005c-0.072-0.064,0.002-0.178,0.025-0.266
			C44.545,6.458,44.551,6.432,44.559,6.409z"/>
		<path fill="#4DB325" d="M38.47,6.737c-0.421-0.289-0.463-0.709-0.408-1.186c0.116,0.111,0.225,0.2,0.344,0.276
			c0.05,0.049,0.102,0.101,0.152,0.151c0.074,0.108,0.145,0.217,0.195,0.338c0.014,0.063,0.034,0.125,0.042,0.19
			c0.028,0.297-0.042,0.35-0.31,0.234C38.481,6.74,38.475,6.74,38.47,6.737z"/>
	</g>
	<g>
		<path fill="#27B2F9" d="M1.225,17.807c-0.077-0.053-0.117-0.134-0.125-0.24h0.327c0.003,0.057,0.028,0.084,0.075,0.084
			c0.016,0,0.031-0.004,0.043-0.01c0.01-0.013,0.016-0.021,0.016-0.039c0-0.021-0.013-0.041-0.038-0.055
			c-0.024-0.014-0.064-0.031-0.116-0.049c-0.062-0.023-0.116-0.047-0.156-0.068c-0.041-0.021-0.076-0.05-0.104-0.092
			c-0.03-0.039-0.045-0.093-0.042-0.156c0-0.061,0.016-0.117,0.048-0.16c0.034-0.045,0.078-0.078,0.135-0.104
			c0.057-0.021,0.12-0.036,0.191-0.036c0.119,0,0.216,0.028,0.285,0.086c0.071,0.054,0.109,0.132,0.112,0.234h-0.33
			c-0.002-0.027-0.008-0.052-0.022-0.062c-0.012-0.015-0.028-0.018-0.046-0.018c-0.012,0-0.023,0.003-0.032,0.012
			c-0.009,0.01-0.013,0.021-0.013,0.039c0,0.021,0.013,0.039,0.038,0.053c0.023,0.016,0.063,0.032,0.116,0.055
			c0.062,0.021,0.113,0.042,0.152,0.063c0.042,0.022,0.075,0.055,0.104,0.09c0.03,0.041,0.044,0.086,0.044,0.143
			c0,0.063-0.014,0.115-0.044,0.165c-0.03,0.045-0.073,0.081-0.128,0.11c-0.058,0.026-0.126,0.039-0.202,0.039
			C1.397,17.891,1.301,17.864,1.225,17.807z"/>
		<path fill="#27B2F9" d="M2.718,17.132c0.039-0.079,0.096-0.135,0.169-0.178c0.073-0.044,0.158-0.063,0.258-0.063
			c0.083,0,0.16,0.018,0.227,0.051c0.066,0.031,0.121,0.072,0.163,0.135c0.042,0.057,0.07,0.124,0.083,0.201H3.294
			c-0.015-0.031-0.036-0.057-0.063-0.074s-0.059-0.027-0.094-0.027c-0.052,0-0.092,0.021-0.121,0.057
			c-0.031,0.039-0.046,0.093-0.046,0.156c0,0.068,0.015,0.116,0.046,0.155c0.028,0.04,0.069,0.062,0.121,0.062
			c0.036,0,0.067-0.01,0.094-0.028s0.048-0.042,0.063-0.074h0.323c-0.013,0.079-0.041,0.146-0.083,0.203s-0.096,0.103-0.163,0.135
			s-0.144,0.046-0.227,0.046c-0.1,0-0.185-0.017-0.258-0.061c-0.073-0.042-0.13-0.104-0.169-0.178
			c-0.039-0.074-0.059-0.16-0.059-0.26C2.659,17.293,2.679,17.205,2.718,17.132z"/>
		<path fill="#27B2F9" d="M4.728,16.9v0.978H4.421V16.9H4.728z"/>
		<path fill="#27B2F9" d="M5.865,17.146v0.121H6.17v0.23H5.865v0.139h0.346v0.241H5.559V16.9h0.652v0.244H5.865V17.146z"/>
		<path fill="#27B2F9" d="M7.958,17.881H7.651l-0.326-0.492v0.492H7.018v-0.979h0.307l0.326,0.5v-0.5h0.308L7.958,17.881
			L7.958,17.881z"/>
		<path fill="#27B2F9" d="M8.818,17.132c0.04-0.079,0.096-0.135,0.169-0.178c0.073-0.044,0.159-0.063,0.258-0.063
			c0.084,0,0.16,0.018,0.228,0.051c0.065,0.031,0.121,0.072,0.162,0.135c0.042,0.057,0.071,0.124,0.083,0.201H9.395
			c-0.015-0.031-0.036-0.057-0.062-0.074c-0.027-0.018-0.058-0.027-0.095-0.027c-0.051,0-0.092,0.021-0.121,0.057
			c-0.03,0.039-0.046,0.093-0.046,0.156c0,0.068,0.016,0.116,0.046,0.155c0.029,0.04,0.07,0.062,0.121,0.062
			c0.037,0,0.068-0.01,0.095-0.028c0.026-0.019,0.047-0.042,0.062-0.074h0.324c-0.013,0.079-0.041,0.146-0.083,0.203
			c-0.041,0.058-0.096,0.103-0.162,0.135c-0.068,0.032-0.144,0.045-0.228,0.045c-0.099,0-0.185-0.016-0.258-0.06
			c-0.073-0.042-0.129-0.104-0.169-0.178c-0.039-0.074-0.058-0.16-0.058-0.26C8.76,17.293,8.78,17.205,8.818,17.132z"/>
		<path fill="#27B2F9" d="M10.83,17.146v0.121h0.304v0.23H10.83v0.139h0.344v0.241h-0.652V16.9h0.652v0.244H10.83V17.146z"/>
		<path fill="#27B2F9" d="M13.216,16.9v0.978h-0.307V16.9H13.216z"/>
		<path fill="#27B2F9" d="M14.139,17.807c-0.075-0.053-0.117-0.134-0.123-0.24h0.325c0.006,0.057,0.031,0.084,0.075,0.084
			c0.018,0,0.032-0.004,0.042-0.01c0.012-0.013,0.018-0.021,0.018-0.039c0-0.021-0.013-0.041-0.038-0.055s-0.064-0.031-0.117-0.049
			c-0.062-0.023-0.114-0.047-0.155-0.068c-0.041-0.021-0.076-0.05-0.105-0.092c-0.029-0.039-0.043-0.093-0.043-0.156
			c0-0.061,0.017-0.117,0.05-0.16c0.032-0.045,0.076-0.078,0.133-0.104c0.058-0.021,0.121-0.036,0.192-0.036
			c0.12,0,0.215,0.028,0.286,0.086c0.071,0.054,0.107,0.132,0.111,0.234h-0.33c-0.002-0.027-0.01-0.052-0.022-0.062
			c-0.012-0.015-0.028-0.018-0.048-0.018c-0.012,0-0.022,0.003-0.03,0.012c-0.009,0.01-0.014,0.021-0.014,0.039
			c0,0.021,0.012,0.039,0.037,0.053c0.025,0.016,0.064,0.032,0.118,0.055c0.062,0.021,0.111,0.042,0.153,0.063
			c0.039,0.022,0.074,0.055,0.105,0.09c0.028,0.041,0.044,0.086,0.044,0.143c0,0.063-0.016,0.115-0.044,0.165
			c-0.031,0.045-0.073,0.081-0.129,0.11c-0.056,0.026-0.124,0.039-0.201,0.039C14.312,17.891,14.215,17.864,14.139,17.807z"/>
		<path fill="#27B2F9" d="M17.222,16.9v0.244h-0.385v0.137h0.276v0.23h-0.276v0.365H16.53V16.9H17.222L17.222,16.9z"/>
		<path fill="#27B2F9" d="M18.24,17.824c-0.076-0.042-0.139-0.104-0.183-0.182c-0.046-0.074-0.068-0.16-0.068-0.256
			c0-0.095,0.023-0.186,0.068-0.261c0.044-0.077,0.107-0.14,0.183-0.181c0.076-0.043,0.162-0.064,0.254-0.064
			c0.092,0,0.176,0.021,0.252,0.064c0.077,0.041,0.137,0.104,0.184,0.181c0.044,0.075,0.065,0.166,0.065,0.261
			c0,0.096-0.021,0.182-0.065,0.256c-0.046,0.078-0.107,0.14-0.184,0.182c-0.076,0.044-0.162,0.064-0.252,0.064
			C18.402,17.891,18.316,17.868,18.24,17.824z M18.635,17.543c0.034-0.039,0.05-0.092,0.05-0.154c0-0.068-0.017-0.121-0.05-0.16
			c-0.032-0.039-0.08-0.063-0.14-0.063c-0.063,0-0.11,0.021-0.142,0.063c-0.034,0.039-0.05,0.092-0.05,0.16
			c0,0.063,0.017,0.115,0.05,0.154c0.032,0.04,0.08,0.063,0.142,0.063C18.555,17.604,18.603,17.583,18.635,17.543z"/>
		<path fill="#27B2F9" d="M20.292,17.881l-0.186-0.352h-0.002v0.352h-0.305v-0.979h0.457c0.079,0,0.146,0.013,0.203,0.041
			c0.058,0.029,0.098,0.067,0.126,0.113c0.028,0.051,0.042,0.104,0.042,0.164c0,0.066-0.018,0.123-0.055,0.174
			c-0.036,0.054-0.089,0.09-0.157,0.109l0.213,0.377H20.292z M20.104,17.323h0.123c0.031,0,0.052-0.007,0.066-0.021
			c0.015-0.009,0.022-0.032,0.022-0.06c0-0.025-0.007-0.047-0.022-0.063c-0.016-0.015-0.038-0.022-0.066-0.022h-0.123V17.323
			L20.104,17.323z"/>
		<path fill="#27B2F9" d="M22.375,17.132c0.039-0.079,0.095-0.135,0.167-0.178c0.074-0.044,0.159-0.063,0.258-0.063
			c0.084,0,0.16,0.018,0.228,0.051c0.065,0.031,0.121,0.072,0.162,0.135c0.042,0.057,0.071,0.124,0.083,0.201H22.95
			c-0.015-0.031-0.035-0.057-0.062-0.074c-0.026-0.018-0.058-0.027-0.094-0.027c-0.052,0-0.093,0.021-0.123,0.057
			c-0.028,0.039-0.044,0.093-0.044,0.156c0,0.068,0.016,0.116,0.044,0.155c0.03,0.04,0.071,0.062,0.123,0.062
			c0.036,0,0.067-0.01,0.094-0.028c0.027-0.019,0.047-0.042,0.062-0.074h0.323c-0.012,0.079-0.041,0.146-0.083,0.203
			c-0.041,0.058-0.096,0.103-0.162,0.135c-0.068,0.032-0.144,0.046-0.228,0.046c-0.099,0-0.184-0.017-0.258-0.061
			c-0.072-0.042-0.129-0.104-0.167-0.178c-0.04-0.074-0.058-0.16-0.058-0.26C22.317,17.293,22.336,17.205,22.375,17.132z"/>
		<path fill="#27B2F9" d="M24.571,17.881l-0.186-0.352l0,0v0.352h-0.307v-0.979h0.456c0.079,0,0.146,0.013,0.203,0.041
			c0.057,0.029,0.098,0.067,0.126,0.113c0.03,0.051,0.044,0.104,0.044,0.164c0,0.066-0.019,0.123-0.056,0.174
			c-0.036,0.054-0.089,0.09-0.157,0.109l0.214,0.377H24.571z M24.385,17.323h0.121c0.03,0,0.052-0.007,0.066-0.021
			c0.016-0.009,0.024-0.032,0.024-0.06c0-0.025-0.008-0.047-0.024-0.063c-0.014-0.015-0.038-0.022-0.066-0.022h-0.121V17.323
			L24.385,17.323z"/>
		<path fill="#27B2F9" d="M26.004,17.146v0.121h0.303v0.23h-0.303v0.139h0.346v0.241h-0.654V16.9h0.654v0.244h-0.346V17.146z"/>
		<path fill="#27B2F9" d="M27.785,17.732H27.46l-0.049,0.146h-0.324l0.36-0.978H27.8l0.357,0.978h-0.322L27.785,17.732z
			 M27.709,17.501l-0.087-0.272l-0.089,0.272H27.709z"/>
		<path fill="#27B2F9" d="M29.688,16.9v0.244h-0.261v0.732h-0.308v-0.732h-0.256V16.9H29.688z"/>
		<path fill="#27B2F9" d="M30.769,16.9v0.978h-0.308V16.9H30.769z"/>
		<path fill="#27B2F9" d="M31.824,17.824c-0.079-0.042-0.138-0.104-0.184-0.182c-0.045-0.074-0.069-0.16-0.069-0.256
			c0-0.095,0.024-0.186,0.069-0.261c0.046-0.077,0.105-0.14,0.184-0.181c0.075-0.043,0.162-0.064,0.253-0.064
			c0.091,0,0.176,0.021,0.253,0.064c0.077,0.041,0.137,0.104,0.181,0.181c0.047,0.075,0.068,0.166,0.068,0.261
			c0,0.096-0.022,0.182-0.068,0.256c-0.043,0.078-0.104,0.14-0.181,0.182c-0.079,0.044-0.162,0.064-0.253,0.064
			C31.986,17.889,31.899,17.868,31.824,17.824z M32.218,17.543c0.033-0.039,0.05-0.092,0.05-0.154c0-0.068-0.018-0.121-0.05-0.16
			c-0.035-0.039-0.08-0.063-0.142-0.063s-0.11,0.021-0.143,0.063c-0.031,0.039-0.05,0.092-0.05,0.16c0,0.063,0.019,0.115,0.05,0.154
			c0.033,0.04,0.082,0.063,0.143,0.063S32.184,17.583,32.218,17.543z"/>
		<path fill="#27B2F9" d="M34.321,17.881h-0.308l-0.326-0.492v0.492h-0.306v-0.979h0.306l0.326,0.5v-0.5h0.308V17.881z"/>
		<path fill="#27B2F9" d="M35.479,17.637l-0.142,0.409h-0.193l0.063-0.409H35.479z"/>
		<path fill="#27B2F9" d="M38.182,17.881h-0.308l-0.325-0.492v0.492H37.24v-0.979h0.309l0.325,0.5v-0.5h0.308V17.881z"/>
		<path fill="#27B2F9" d="M39.236,17.824c-0.077-0.042-0.139-0.104-0.184-0.182c-0.045-0.074-0.068-0.16-0.068-0.256
			c0-0.095,0.022-0.186,0.068-0.261c0.045-0.077,0.107-0.14,0.184-0.181c0.077-0.043,0.162-0.064,0.252-0.064
			c0.093,0,0.178,0.021,0.255,0.064c0.076,0.041,0.137,0.104,0.181,0.181c0.044,0.075,0.068,0.166,0.068,0.261
			c0,0.096-0.023,0.182-0.068,0.256c-0.044,0.078-0.105,0.14-0.182,0.182c-0.077,0.044-0.16,0.064-0.253,0.064
			C39.396,17.891,39.313,17.868,39.236,17.824z M39.632,17.543c0.031-0.039,0.049-0.092,0.049-0.154c0-0.068-0.018-0.121-0.049-0.16
			c-0.035-0.039-0.08-0.063-0.144-0.063c-0.06,0-0.108,0.021-0.141,0.063c-0.035,0.039-0.05,0.092-0.05,0.16
			c0,0.063,0.016,0.115,0.05,0.154c0.033,0.04,0.082,0.063,0.141,0.063C39.552,17.604,39.597,17.583,39.632,17.543z"/>
		<path fill="#27B2F9" d="M41.563,16.9v0.244h-0.26v0.732h-0.308v-0.732h-0.258V16.9H41.563z"/>
		<path fill="#27B2F9" d="M43.955,16.9v0.244h-0.383v0.137h0.277v0.23h-0.277v0.365h-0.309V16.9H43.955L43.955,16.9z"/>
		<path fill="#27B2F9" d="M44.977,17.824c-0.078-0.042-0.14-0.104-0.186-0.182c-0.044-0.074-0.066-0.16-0.066-0.256
			c0-0.095,0.022-0.186,0.066-0.261c0.046-0.077,0.105-0.14,0.186-0.181c0.075-0.043,0.162-0.064,0.252-0.064
			c0.094,0,0.178,0.021,0.254,0.064c0.078,0.041,0.138,0.104,0.182,0.181c0.046,0.075,0.068,0.166,0.068,0.261
			c0,0.096-0.022,0.182-0.068,0.256c-0.044,0.078-0.104,0.14-0.182,0.182c-0.078,0.044-0.16,0.064-0.254,0.064
			C45.139,17.891,45.052,17.868,44.977,17.824z M45.372,17.543c0.03-0.039,0.048-0.092,0.048-0.154c0-0.068-0.018-0.121-0.048-0.16
			c-0.035-0.039-0.083-0.063-0.146-0.063c-0.061,0-0.106,0.021-0.141,0.063c-0.035,0.039-0.051,0.092-0.051,0.16
			c0,0.063,0.016,0.115,0.051,0.154c0.033,0.04,0.08,0.063,0.141,0.063C45.289,17.604,45.337,17.583,45.372,17.543z"/>
		<path fill="#27B2F9" d="M47.025,17.881l-0.184-0.352H46.84v0.352h-0.306v-0.979h0.456c0.08,0,0.146,0.013,0.201,0.041
			c0.061,0.029,0.099,0.067,0.129,0.113c0.027,0.051,0.041,0.104,0.041,0.164c0,0.066-0.019,0.123-0.053,0.174
			c-0.037,0.054-0.09,0.09-0.158,0.109l0.215,0.377H47.025z M46.84,17.323h0.122c0.029,0,0.052-0.007,0.067-0.021
			c0.015-0.009,0.021-0.032,0.021-0.06c0-0.025-0.007-0.047-0.022-0.063c-0.014-0.015-0.036-0.022-0.065-0.022H46.84V17.323
			L46.84,17.323z"/>
		<path fill="#27B2F9" d="M49.758,16.964c0.074,0.039,0.135,0.097,0.178,0.172c0.039,0.073,0.063,0.16,0.063,0.253
			c0,0.092-0.021,0.178-0.063,0.252c-0.043,0.074-0.104,0.131-0.178,0.174c-0.076,0.043-0.167,0.066-0.271,0.066h-0.408v-0.979
			h0.408C49.591,16.9,49.682,16.922,49.758,16.964z M49.622,17.552c0.044-0.038,0.062-0.093,0.062-0.163
			c0-0.072-0.018-0.125-0.062-0.164c-0.037-0.035-0.097-0.059-0.163-0.059h-0.074v0.438h0.074
			C49.525,17.604,49.585,17.586,49.622,17.552z"/>
		<path fill="#27B2F9" d="M51.105,17.146v0.121h0.306v0.23h-0.306v0.139h0.345v0.241h-0.651V16.9h0.651v0.244h-0.345V17.146z"/>
		<path fill="#27B2F9" d="M52.354,17.807c-0.076-0.053-0.117-0.134-0.125-0.24h0.328c0.002,0.057,0.027,0.084,0.073,0.084
			c0.019,0,0.032-0.004,0.042-0.01c0.012-0.013,0.02-0.021,0.02-0.039c0-0.021-0.015-0.041-0.039-0.055
			c-0.025-0.014-0.064-0.031-0.117-0.049c-0.061-0.023-0.114-0.047-0.153-0.068c-0.042-0.021-0.077-0.05-0.106-0.092
			c-0.027-0.039-0.041-0.093-0.041-0.156c0-0.061,0.014-0.117,0.05-0.16c0.03-0.045,0.073-0.078,0.131-0.104
			c0.056-0.021,0.121-0.036,0.19-0.036c0.121,0,0.218,0.028,0.289,0.086c0.067,0.054,0.105,0.132,0.109,0.234h-0.331
			c0-0.027-0.007-0.052-0.021-0.062c-0.014-0.015-0.028-0.018-0.049-0.018c-0.013,0-0.021,0.003-0.029,0.012
			c-0.01,0.01-0.016,0.021-0.016,0.039c0,0.021,0.016,0.039,0.039,0.053c0.025,0.016,0.064,0.032,0.118,0.055
			c0.06,0.021,0.109,0.042,0.153,0.063c0.039,0.022,0.072,0.055,0.102,0.09c0.028,0.041,0.045,0.086,0.045,0.143
			c0,0.063-0.017,0.115-0.045,0.165c-0.029,0.045-0.07,0.081-0.128,0.11c-0.056,0.026-0.124,0.039-0.202,0.039
			C52.523,17.891,52.428,17.864,52.354,17.807z"/>
		<path fill="#27B2F9" d="M54.585,16.9v0.244h-0.259v0.732h-0.311v-0.732h-0.254V16.9H54.585z"/>
		<path fill="#27B2F9" d="M55.854,17.881l-0.187-0.352l0,0v0.352h-0.306v-0.979h0.453c0.08,0,0.147,0.013,0.205,0.041
			c0.056,0.029,0.099,0.067,0.127,0.113c0.028,0.051,0.043,0.104,0.043,0.164c0,0.066-0.02,0.123-0.059,0.174
			c-0.035,0.054-0.088,0.09-0.156,0.109l0.215,0.377H55.854z M55.667,17.323h0.121c0.03,0,0.054-0.007,0.067-0.021
			c0.014-0.009,0.021-0.032,0.021-0.06c0-0.025-0.008-0.047-0.021-0.063c-0.019-0.015-0.041-0.022-0.067-0.022h-0.121V17.323
			L55.667,17.323z"/>
		<path fill="#27B2F9" d="M57.277,16.9v0.551c0,0.047,0.012,0.082,0.031,0.105c0.02,0.028,0.051,0.043,0.096,0.043
			c0.044,0,0.076-0.015,0.097-0.043c0.021-0.023,0.033-0.06,0.033-0.105V16.9h0.305v0.551c0,0.092-0.019,0.174-0.057,0.238
			c-0.04,0.067-0.093,0.117-0.161,0.148c-0.066,0.036-0.141,0.051-0.223,0.051c-0.084,0-0.157-0.015-0.221-0.051
			c-0.063-0.031-0.115-0.081-0.148-0.146c-0.04-0.067-0.059-0.146-0.059-0.241V16.9H57.277L57.277,16.9z"/>
		<path fill="#27B2F9" d="M58.697,17.132c0.037-0.079,0.095-0.135,0.166-0.178c0.074-0.044,0.16-0.063,0.26-0.063
			c0.084,0,0.16,0.018,0.229,0.051c0.063,0.031,0.121,0.072,0.164,0.135c0.039,0.057,0.065,0.124,0.08,0.201h-0.322
			c-0.016-0.031-0.037-0.057-0.065-0.074c-0.024-0.018-0.056-0.027-0.092-0.027c-0.05,0-0.093,0.021-0.119,0.057
			c-0.033,0.039-0.048,0.093-0.048,0.156c0,0.068,0.015,0.116,0.048,0.155c0.026,0.04,0.069,0.062,0.119,0.062
			c0.036,0,0.067-0.01,0.092-0.028c0.028-0.019,0.051-0.042,0.065-0.074h0.322c-0.015,0.079-0.041,0.146-0.08,0.203
			c-0.043,0.058-0.102,0.103-0.164,0.135c-0.067,0.032-0.145,0.046-0.229,0.046c-0.1,0-0.186-0.017-0.26-0.061
			c-0.071-0.042-0.129-0.104-0.166-0.178c-0.039-0.074-0.063-0.16-0.063-0.26C58.636,17.293,58.658,17.205,58.697,17.132z"/>
		<path fill="#27B2F9" d="M61.167,16.9v0.244h-0.259v0.732h-0.307v-0.732h-0.26V16.9H61.167z"/>
		<path fill="#27B2F9" d="M62.247,16.9v0.978h-0.306V16.9H62.247z"/>
		<path fill="#27B2F9" d="M63.305,17.824c-0.078-0.042-0.14-0.104-0.185-0.182c-0.048-0.074-0.068-0.16-0.068-0.256
			c0-0.095,0.021-0.186,0.068-0.261c0.045-0.077,0.106-0.14,0.185-0.181c0.074-0.043,0.159-0.064,0.252-0.064
			c0.092,0,0.178,0.021,0.254,0.064c0.075,0.041,0.139,0.104,0.184,0.181c0.043,0.075,0.064,0.166,0.064,0.261
			c0,0.096-0.021,0.182-0.064,0.256c-0.045,0.078-0.107,0.14-0.184,0.182c-0.076,0.044-0.162,0.064-0.254,0.064
			C63.464,17.891,63.379,17.868,63.305,17.824z M63.698,17.543c0.032-0.039,0.05-0.092,0.05-0.154c0-0.068-0.018-0.121-0.05-0.16
			s-0.082-0.063-0.142-0.063c-0.063,0-0.111,0.021-0.144,0.063c-0.033,0.039-0.05,0.092-0.05,0.16c0,0.063,0.018,0.115,0.05,0.154
			c0.032,0.04,0.081,0.063,0.144,0.063C63.616,17.604,63.666,17.583,63.698,17.543z"/>
		<path fill="#27B2F9" d="M65.799,17.881h-0.306l-0.326-0.492v0.492h-0.306v-0.979h0.306l0.326,0.5v-0.5h0.306V17.881z"/>
	</g>
</g>
<g id="Layer_2">
	<g>
		<path fill="#00D6AD" d="M71.24,10.868c0.154-1.46,1.009-2.531,2.279-2.908c1.383-0.41,2.819,0.007,3.684,1.075
			c0.908,1.11,1.053,3.011-0.063,4.342c-0.517,0.618-1.115,1.155-1.714,1.691c-0.547,0.498-1.101,0.988-1.649,1.486
			c-0.014,0.012-0.022,0.032-0.039,0.062c0.082,0.043,0.168,0.024,0.25,0.024c2.763,0.004,5.525,0.004,8.285,0.004
			c0.217,0,0.442,0.03,0.66-0.02c0.666-0.148,0.986-0.623,1.139-1.245c0.027-0.13,0.046-0.265,0.046-0.399
			c0.024-1.344,0.034-2.692,0-4.036c-0.009-0.355-0.116-0.688-0.33-0.978c-0.425-0.572-1.39-0.728-2.052-0.339
			c-0.021,0.013-0.038,0.025-0.055,0.036c-0.063,0.033-0.129,0.099-0.195,0.041c-0.057-0.054,0.022-0.115,0.046-0.168
			c0.226-0.575,0.575-1.06,1.159-1.305c1.105-0.459,1.857-0.224,2.6,0.7c0.469,0.586,0.679,1.281,0.686,2.026
			c0.012,1.437,0.058,2.872-0.021,4.31c-0.076,1.392-0.89,2.479-2.122,2.895c-0.189,0.063-0.377,0.07-0.568,0.07
			c-3.88,0-7.762,0-11.641,0c-0.368,0-0.368,0-0.368-0.364s0.009-0.728,0-1.095c-0.003-0.111,0.035-0.189,0.123-0.271
			c1.245-1.178,2.483-2.359,3.728-3.543c0.185-0.172,0.345-0.359,0.494-0.561c0.721-0.946,0.619-1.919-0.145-2.774
			c-1.061-1.19-2.659-1.057-3.645,0.263C71.596,10.177,71.424,10.493,71.24,10.868z"/>
		<path fill="#00060C" d="M81.413,16.172c-0.687,0-1.317,0-1.95,0c-0.104,0.003-0.148-0.036-0.176-0.14
			c-0.092-0.355-0.166-0.714-0.166-1.089c0-1.313-0.032-2.635,0.006-3.948c0.041-1.276,0.557-2.313,1.744-2.913
			c0.623-0.316,1.299-0.396,1.99-0.36c0.053,0.002,0.113,0.003,0.152,0.052c-1.219,0.346-1.781,1.232-1.973,2.417
			c-0.073,0.427-0.07,0.864-0.073,1.295c-0.009,0.991-0.006,1.979-0.003,2.966C80.966,15.048,81.004,15.636,81.413,16.172z"/>
		<path fill="#00060C" d="M74.82,9.51c-1.131-0.074-1.659,0.719-1.77,1.551c-0.007,0.062-0.025,0.124-0.035,0.188
			c-0.035,0.292-0.035,0.292-0.342,0.292c-0.385,0-0.768-0.003-1.15,0.003c-0.147,0.004-0.211-0.016-0.142-0.187
			c0.251-0.649,0.575-1.25,1.097-1.725C73.114,9.06,74,8.966,74.723,9.412C74.758,9.434,74.802,9.445,74.82,9.51z"/>
		<path fill="#FFFFFF" d="M77.754,15.745c-0.191,0-0.384-0.005-0.578,0.004c-0.109,0-0.15-0.031-0.148-0.146
			c0.005-0.377,0.005-0.754,0-1.131c0-0.117,0.049-0.144,0.154-0.144c0.383,0.008,0.768,0.008,1.15,0
			c0.116-0.003,0.156,0.037,0.156,0.155c-0.006,0.371-0.006,0.74,0,1.109c0.004,0.129-0.047,0.157-0.159,0.15
			C78.137,15.736,77.945,15.745,77.754,15.745L77.754,15.745z"/>
	</g>
	<rect x="68.673" y="8.41" fill="#00FFFF" width="0.437" height="10.339"/>
</g>
</svg>
